%TF.GenerationSoftware,KiCad,Pcbnew,(5.1.10)-1*%
%TF.CreationDate,2022-12-03T21:22:06-08:00*%
%TF.ProjectId,project,70726f6a-6563-4742-9e6b-696361645f70,0.0*%
%TF.SameCoordinates,Original*%
%TF.FileFunction,Paste,Top*%
%TF.FilePolarity,Positive*%
%FSLAX46Y46*%
G04 Gerber Fmt 4.6, Leading zero omitted, Abs format (unit mm)*
G04 Created by KiCad (PCBNEW (5.1.10)-1) date 2022-12-03 21:22:06*
%MOMM*%
%LPD*%
G01*
G04 APERTURE LIST*
%ADD10R,0.750000X0.300000*%
%ADD11R,0.500000X0.600000*%
%ADD12R,0.500000X0.900000*%
%ADD13R,1.300000X0.900000*%
%ADD14R,1.500000X1.300000*%
%ADD15R,0.800000X0.800000*%
%ADD16R,1.400000X1.500000*%
%ADD17R,0.900000X0.500000*%
%ADD18R,0.400000X1.800000*%
%ADD19R,1.500000X0.550000*%
%ADD20R,0.550000X1.500000*%
%ADD21R,1.900000X1.500000*%
%ADD22R,1.350000X0.400000*%
%ADD23R,1.250000X1.000000*%
%ADD24R,2.000000X0.500000*%
%ADD25R,0.800000X0.750000*%
%ADD26R,0.600000X0.400000*%
%ADD27R,1.700000X0.900000*%
G04 APERTURE END LIST*
D10*
%TO.C,U1*%
X161250000Y-82650000D03*
X161250000Y-83150000D03*
X161250000Y-83650000D03*
X161250000Y-84150000D03*
X164150000Y-84150000D03*
X164150000Y-83650000D03*
X164150000Y-83150000D03*
X164150000Y-82650000D03*
D11*
X162375000Y-83025000D03*
X162375000Y-83775000D03*
X163025000Y-83025000D03*
X163025000Y-83775000D03*
%TD*%
D12*
%TO.C,R27*%
X127750000Y-104000000D03*
X126250000Y-104000000D03*
%TD*%
D13*
%TO.C,LED1*%
X108410000Y-106930000D03*
X108410000Y-109070000D03*
X111590000Y-109070000D03*
X111590000Y-106930000D03*
%TD*%
D14*
%TO.C,F1*%
X109150000Y-94000000D03*
X111850000Y-94000000D03*
%TD*%
D15*
%TO.C,D22*%
X110800000Y-89000000D03*
X109200000Y-89000000D03*
%TD*%
D16*
%TO.C,SW1*%
X169000000Y-103580000D03*
X169000000Y-97080000D03*
%TD*%
D12*
%TO.C,R22*%
X132900000Y-83100000D03*
X134400000Y-83100000D03*
%TD*%
D15*
%TO.C,D1*%
X114935000Y-124460000D03*
X114935000Y-122860000D03*
%TD*%
%TO.C,D21*%
X110800000Y-85000000D03*
X109200000Y-85000000D03*
%TD*%
%TO.C,D23*%
X110800000Y-87000000D03*
X109200000Y-87000000D03*
%TD*%
%TO.C,D11*%
X140335000Y-124460000D03*
X140335000Y-122860000D03*
%TD*%
%TO.C,D2*%
X117475000Y-124460000D03*
X117475000Y-122860000D03*
%TD*%
%TO.C,D12*%
X142875000Y-124460000D03*
X142875000Y-122860000D03*
%TD*%
%TO.C,D3*%
X120015000Y-124460000D03*
X120015000Y-122860000D03*
%TD*%
%TO.C,D13*%
X145415000Y-124460000D03*
X145415000Y-122860000D03*
%TD*%
%TO.C,D4*%
X122555000Y-124460000D03*
X122555000Y-122860000D03*
%TD*%
%TO.C,D14*%
X147955000Y-124460000D03*
X147955000Y-122860000D03*
%TD*%
%TO.C,D5*%
X125095000Y-124460000D03*
X125095000Y-122860000D03*
%TD*%
%TO.C,D15*%
X150495000Y-124460000D03*
X150495000Y-122860000D03*
%TD*%
%TO.C,D6*%
X127635000Y-124460000D03*
X127635000Y-122860000D03*
%TD*%
%TO.C,D16*%
X153035000Y-124460000D03*
X153035000Y-122860000D03*
%TD*%
%TO.C,D7*%
X130175000Y-124460000D03*
X130175000Y-122860000D03*
%TD*%
%TO.C,D17*%
X155575000Y-124460000D03*
X155575000Y-122860000D03*
%TD*%
%TO.C,D8*%
X132715000Y-124460000D03*
X132715000Y-122860000D03*
%TD*%
%TO.C,D18*%
X158115000Y-124460000D03*
X158115000Y-122860000D03*
%TD*%
%TO.C,D9*%
X135255000Y-124460000D03*
X135255000Y-122860000D03*
%TD*%
%TO.C,D19*%
X160655000Y-124460000D03*
X160655000Y-122860000D03*
%TD*%
%TO.C,D10*%
X137795000Y-124460000D03*
X137795000Y-122860000D03*
%TD*%
%TO.C,D20*%
X163195000Y-124460000D03*
X163195000Y-122860000D03*
%TD*%
D17*
%TO.C,R11*%
X140335000Y-119265000D03*
X140335000Y-120765000D03*
%TD*%
D12*
%TO.C,R21*%
X109250000Y-91000000D03*
X110750000Y-91000000D03*
%TD*%
%TO.C,R23*%
X132900000Y-81500000D03*
X134400000Y-81500000D03*
%TD*%
%TO.C,R24*%
X119250000Y-100000000D03*
X120750000Y-100000000D03*
%TD*%
%TO.C,R25*%
X119250000Y-98000000D03*
X120750000Y-98000000D03*
%TD*%
%TO.C,R26*%
X138950000Y-80010000D03*
X140450000Y-80010000D03*
%TD*%
%TO.C,RV1*%
X115500000Y-100000000D03*
X117000000Y-100000000D03*
%TD*%
%TO.C,RV2*%
X115500000Y-98000000D03*
X117000000Y-98000000D03*
%TD*%
D17*
%TO.C,R1*%
X114935000Y-119250000D03*
X114935000Y-120750000D03*
%TD*%
%TO.C,R2*%
X117475000Y-119250000D03*
X117475000Y-120750000D03*
%TD*%
%TO.C,R12*%
X142875000Y-119150000D03*
X142875000Y-120650000D03*
%TD*%
%TO.C,R3*%
X120015000Y-119265000D03*
X120015000Y-120765000D03*
%TD*%
%TO.C,R13*%
X145415000Y-119150000D03*
X145415000Y-120650000D03*
%TD*%
%TO.C,R4*%
X122555000Y-119265000D03*
X122555000Y-120765000D03*
%TD*%
%TO.C,R14*%
X147955000Y-119265000D03*
X147955000Y-120765000D03*
%TD*%
%TO.C,R5*%
X125095000Y-119265000D03*
X125095000Y-120765000D03*
%TD*%
%TO.C,R15*%
X150495000Y-119265000D03*
X150495000Y-120765000D03*
%TD*%
%TO.C,R6*%
X127635000Y-119265000D03*
X127635000Y-120765000D03*
%TD*%
%TO.C,R16*%
X153035000Y-119265000D03*
X153035000Y-120765000D03*
%TD*%
%TO.C,R7*%
X130175000Y-119265000D03*
X130175000Y-120765000D03*
%TD*%
%TO.C,R17*%
X155575000Y-119265000D03*
X155575000Y-120765000D03*
%TD*%
%TO.C,R8*%
X132715000Y-119265000D03*
X132715000Y-120765000D03*
%TD*%
%TO.C,R18*%
X158115000Y-119265000D03*
X158115000Y-120765000D03*
%TD*%
%TO.C,R9*%
X135255000Y-119265000D03*
X135255000Y-120765000D03*
%TD*%
%TO.C,R19*%
X160655000Y-119265000D03*
X160655000Y-120765000D03*
%TD*%
%TO.C,R10*%
X137795000Y-119265000D03*
X137795000Y-120765000D03*
%TD*%
%TO.C,R20*%
X163195000Y-119265000D03*
X163195000Y-120765000D03*
%TD*%
D18*
%TO.C,Y1*%
X140970000Y-81915000D03*
X139770000Y-81915000D03*
X138570000Y-81915000D03*
%TD*%
D19*
%TO.C,U1*%
X145400000Y-94805000D03*
X145400000Y-94005000D03*
X145400000Y-93205000D03*
X145400000Y-92405000D03*
X145400000Y-91605000D03*
X145400000Y-90805000D03*
X145400000Y-90005000D03*
X145400000Y-89205000D03*
X145400000Y-88405000D03*
X145400000Y-87605000D03*
X145400000Y-86805000D03*
D20*
X143700000Y-85105000D03*
X142900000Y-85105000D03*
X142100000Y-85105000D03*
X141300000Y-85105000D03*
X140500000Y-85105000D03*
X139700000Y-85105000D03*
X138900000Y-85105000D03*
X138100000Y-85105000D03*
X137300000Y-85105000D03*
X136500000Y-85105000D03*
X135700000Y-85105000D03*
D19*
X134000000Y-86805000D03*
X134000000Y-87605000D03*
X134000000Y-88405000D03*
X134000000Y-89205000D03*
X134000000Y-90005000D03*
X134000000Y-90805000D03*
X134000000Y-91605000D03*
X134000000Y-92405000D03*
X134000000Y-93205000D03*
X134000000Y-94005000D03*
X134000000Y-94805000D03*
D20*
X135700000Y-96505000D03*
X136500000Y-96505000D03*
X137300000Y-96505000D03*
X138100000Y-96505000D03*
X138900000Y-96505000D03*
X139700000Y-96505000D03*
X140500000Y-96505000D03*
X141300000Y-96505000D03*
X142100000Y-96505000D03*
X142900000Y-96505000D03*
X143700000Y-96505000D03*
%TD*%
D21*
%TO.C,J1*%
X108870000Y-99330000D03*
D22*
X111570000Y-100330000D03*
X111570000Y-100980000D03*
X111570000Y-101630000D03*
X111570000Y-99030000D03*
X111570000Y-99680000D03*
D21*
X108870000Y-101330000D03*
%TD*%
D23*
%TO.C,C1*%
X131445000Y-96885000D03*
X131445000Y-94885000D03*
%TD*%
D24*
%TO.C,X1*%
X123000000Y-94400000D03*
X115000000Y-94400000D03*
X123000000Y-93600000D03*
X115000000Y-93600000D03*
X123000000Y-92800000D03*
X115000000Y-92800000D03*
X123000000Y-92000000D03*
X115000000Y-92000000D03*
X123000000Y-91200000D03*
X115000000Y-91200000D03*
X123000000Y-90400000D03*
X115000000Y-90400000D03*
X123000000Y-86400000D03*
X115000000Y-86400000D03*
X123000000Y-85600000D03*
X115000000Y-85600000D03*
X123000000Y-84800000D03*
X115000000Y-84800000D03*
X123000000Y-84000000D03*
X115000000Y-84000000D03*
X123000000Y-83200000D03*
X115000000Y-83200000D03*
X123000000Y-82400000D03*
X115000000Y-82400000D03*
X123000000Y-81600000D03*
X115000000Y-81600000D03*
%TD*%
%TO.C,X2*%
X115000000Y-103600000D03*
X123000000Y-103600000D03*
X115000000Y-104400000D03*
X123000000Y-104400000D03*
X115000000Y-105200000D03*
X123000000Y-105200000D03*
X115000000Y-106000000D03*
X123000000Y-106000000D03*
X115000000Y-106800000D03*
X123000000Y-106800000D03*
X115000000Y-107600000D03*
X123000000Y-107600000D03*
X115000000Y-108400000D03*
X123000000Y-108400000D03*
X115000000Y-112400000D03*
X123000000Y-112400000D03*
X115000000Y-113200000D03*
X123000000Y-113200000D03*
X115000000Y-114000000D03*
X123000000Y-114000000D03*
X115000000Y-114800000D03*
X123000000Y-114800000D03*
X115000000Y-115600000D03*
X123000000Y-115600000D03*
X115000000Y-116400000D03*
X123000000Y-116400000D03*
%TD*%
D12*
%TO.C,R28*%
X126250000Y-102500000D03*
X127750000Y-102500000D03*
%TD*%
D16*
%TO.C,SW2*%
X110000000Y-118250000D03*
X110000000Y-111750000D03*
%TD*%
D25*
%TO.C,C2*%
X157750000Y-103500000D03*
X156250000Y-103500000D03*
%TD*%
D26*
%TO.C,JP1*%
X151500000Y-106450000D03*
X151500000Y-107050000D03*
%TD*%
D27*
%TO.C,R29*%
X151500000Y-105300000D03*
X151500000Y-108200000D03*
%TD*%
%TO.C,U2*%
G36*
G01*
X160450000Y-109255000D02*
X160450000Y-109555000D01*
G75*
G02*
X160300000Y-109705000I-150000J0D01*
G01*
X158650000Y-109705000D01*
G75*
G02*
X158500000Y-109555000I0J150000D01*
G01*
X158500000Y-109255000D01*
G75*
G02*
X158650000Y-109105000I150000J0D01*
G01*
X160300000Y-109105000D01*
G75*
G02*
X160450000Y-109255000I0J-150000D01*
G01*
G37*
G36*
G01*
X160450000Y-107985000D02*
X160450000Y-108285000D01*
G75*
G02*
X160300000Y-108435000I-150000J0D01*
G01*
X158650000Y-108435000D01*
G75*
G02*
X158500000Y-108285000I0J150000D01*
G01*
X158500000Y-107985000D01*
G75*
G02*
X158650000Y-107835000I150000J0D01*
G01*
X160300000Y-107835000D01*
G75*
G02*
X160450000Y-107985000I0J-150000D01*
G01*
G37*
G36*
G01*
X160450000Y-106715000D02*
X160450000Y-107015000D01*
G75*
G02*
X160300000Y-107165000I-150000J0D01*
G01*
X158650000Y-107165000D01*
G75*
G02*
X158500000Y-107015000I0J150000D01*
G01*
X158500000Y-106715000D01*
G75*
G02*
X158650000Y-106565000I150000J0D01*
G01*
X160300000Y-106565000D01*
G75*
G02*
X160450000Y-106715000I0J-150000D01*
G01*
G37*
G36*
G01*
X160450000Y-105445000D02*
X160450000Y-105745000D01*
G75*
G02*
X160300000Y-105895000I-150000J0D01*
G01*
X158650000Y-105895000D01*
G75*
G02*
X158500000Y-105745000I0J150000D01*
G01*
X158500000Y-105445000D01*
G75*
G02*
X158650000Y-105295000I150000J0D01*
G01*
X160300000Y-105295000D01*
G75*
G02*
X160450000Y-105445000I0J-150000D01*
G01*
G37*
G36*
G01*
X155500000Y-105445000D02*
X155500000Y-105745000D01*
G75*
G02*
X155350000Y-105895000I-150000J0D01*
G01*
X153700000Y-105895000D01*
G75*
G02*
X153550000Y-105745000I0J150000D01*
G01*
X153550000Y-105445000D01*
G75*
G02*
X153700000Y-105295000I150000J0D01*
G01*
X155350000Y-105295000D01*
G75*
G02*
X155500000Y-105445000I0J-150000D01*
G01*
G37*
G36*
G01*
X155500000Y-106715000D02*
X155500000Y-107015000D01*
G75*
G02*
X155350000Y-107165000I-150000J0D01*
G01*
X153700000Y-107165000D01*
G75*
G02*
X153550000Y-107015000I0J150000D01*
G01*
X153550000Y-106715000D01*
G75*
G02*
X153700000Y-106565000I150000J0D01*
G01*
X155350000Y-106565000D01*
G75*
G02*
X155500000Y-106715000I0J-150000D01*
G01*
G37*
G36*
G01*
X155500000Y-107985000D02*
X155500000Y-108285000D01*
G75*
G02*
X155350000Y-108435000I-150000J0D01*
G01*
X153700000Y-108435000D01*
G75*
G02*
X153550000Y-108285000I0J150000D01*
G01*
X153550000Y-107985000D01*
G75*
G02*
X153700000Y-107835000I150000J0D01*
G01*
X155350000Y-107835000D01*
G75*
G02*
X155500000Y-107985000I0J-150000D01*
G01*
G37*
G36*
G01*
X155500000Y-109255000D02*
X155500000Y-109555000D01*
G75*
G02*
X155350000Y-109705000I-150000J0D01*
G01*
X153700000Y-109705000D01*
G75*
G02*
X153550000Y-109555000I0J150000D01*
G01*
X153550000Y-109255000D01*
G75*
G02*
X153700000Y-109105000I150000J0D01*
G01*
X155350000Y-109105000D01*
G75*
G02*
X155500000Y-109255000I0J-150000D01*
G01*
G37*
%TD*%
M02*
